<?xml version="1.0" encoding="UTF-8" standalone="no"?>
<svg xmlns:ffdec="https://www.free-decompiler.com/flash" xmlns:xlink="http://www.w3.org/1999/xlink" ffdec:objectType="shape" height="20.75px" width="42.25px" viewBox="0 0 42.25 20.75" xmlns="http://www.w3.org/2000/svg">
  <g transform="matrix(1.0, 0.0, 0.0, 1.0, 21.15, 9.85)">
    <path d="M11.95 -2.65 L10.55 -9.35 20.6 0.55 10.55 10.4 11.95 3.75 -19.6 3.75 Q-20.05 3.75 -20.35 2.9 L-20.65 0.85 -20.65 0.3 -20.35 -1.75 Q-20.05 -2.65 -19.6 -2.65 L11.95 -2.65" fill="#505050" fill-rule="evenodd" stroke="none"/>
    <path d="M11.95 -2.65 L-19.6 -2.65 Q-20.05 -2.65 -20.35 -1.75 L-20.65 0.3 -20.65 0.85 -20.35 2.9 Q-20.05 3.75 -19.6 3.75 L11.95 3.75 10.55 10.4 20.6 0.55 10.55 -9.35 11.95 -2.65 Z" fill="none" stroke="#505050" stroke-linecap="round" stroke-linejoin="round" stroke-width="1.0"/>
  </g>
</svg>
