<?xml version="1.0" encoding="UTF-8" standalone="no"?>
<svg xmlns:ffdec="https://www.free-decompiler.com/flash" xmlns:xlink="http://www.w3.org/1999/xlink" ffdec:objectType="shape" height="12.5px" width="12.5px" xmlns="http://www.w3.org/2000/svg">
  <g transform="matrix(1.0, 0.0, 0.0, 1.0, 6.25, 6.25)">
    <path d="M4.05 -4.1 Q5.75 -2.4 5.75 0.0 5.75 2.4 4.05 4.05 2.4 5.75 0.0 5.75 -2.4 5.75 -4.1 4.05 -5.75 2.4 -5.75 0.0 -5.75 -2.4 -4.1 -4.1 -2.4 -5.75 0.0 -5.75 2.4 -5.75 4.05 -4.1" fill="#a2a2a2" fill-opacity="0.8" fill-rule="evenodd" stroke="none"/>
    <path d="M4.05 -4.1 Q5.75 -2.4 5.75 0.0 5.75 2.4 4.05 4.05 2.4 5.75 0.0 5.75 -2.4 5.75 -4.1 4.05 -5.75 2.4 -5.75 0.0 -5.75 -2.4 -4.1 -4.1 -2.4 -5.75 0.0 -5.75 2.4 -5.75 4.05 -4.1 Z" fill="none" stroke="#000000" stroke-linecap="round" stroke-linejoin="round" stroke-width="1.0"/>
  </g>
</svg>
