<?xml version="1.0" encoding="UTF-8" standalone="no"?>
<svg xmlns:ffdec="https://www.free-decompiler.com/flash" xmlns:xlink="http://www.w3.org/1999/xlink" ffdec:objectType="shape" height="34.2px" width="39.5px" viewBox="0 0 39.5 34.2" xmlns="http://www.w3.org/2000/svg">
  <g transform="matrix(1.0, 0.0, 0.0, 1.0, 17.1, 17.1)">
    <path d="M10.35 13.0 Q5.9 16.6 0.0 16.6 -6.45 16.6 -11.15 12.35 L-11.75 11.75 Q-16.6 6.9 -16.6 0.0 -16.6 -6.9 -11.75 -11.75 -6.9 -16.6 0.0 -16.6 L4.2 -16.1 3.0 -11.65 0.0 -12.0 Q-5.0 -12.0 -8.5 -8.5 -10.25 -6.7 -11.15 -4.55 -12.0 -2.45 -12.0 0.0 -12.0 5.0 -8.5 8.5 -5.0 12.0 0.0 12.0 L2.0 11.85 2.0 13.0 10.35 13.0" fill="#505050" fill-rule="evenodd" stroke="none"/>
    <path d="M2.0 11.85 L0.0 12.0 Q-5.0 12.0 -8.5 8.5 -12.0 5.0 -12.0 0.0 -12.0 -2.45 -11.15 -4.55 -10.25 -6.7 -8.5 -8.5 -5.0 -12.0 0.0 -12.0 L3.0 -11.65 4.2 -16.1 0.0 -16.6 Q-6.9 -16.6 -11.75 -11.75 -16.6 -6.9 -16.6 0.0 -16.6 6.9 -11.75 11.75 L-11.15 12.35 Q-6.45 16.6 0.0 16.6 5.9 16.6 10.35 13.0" fill="none" stroke="#505050" stroke-linecap="round" stroke-linejoin="round" stroke-width="1.0"/>
    <path d="M2.0 11.85 Q5.7 11.3 8.5 8.5 11.65 5.35 11.95 1.0 L6.45 2.15 14.2 -5.75 21.9 2.15 16.6 1.05 Q16.25 7.25 11.75 11.75 L11.15 12.35 10.35 13.0 2.0 13.0 2.0 11.85" fill="#505050" fill-rule="evenodd" stroke="none"/>
    <path d="M10.35 13.0 L11.15 12.35 11.75 11.75 Q16.25 7.25 16.6 1.05 L21.9 2.15 14.2 -5.75 6.45 2.15 11.95 1.0 Q11.65 5.35 8.5 8.5 5.7 11.3 2.0 11.85" fill="none" stroke="#505050" stroke-linecap="round" stroke-linejoin="round" stroke-width="1.0"/>
  </g>
</svg>
